<?xml version="1.0" encoding="UTF-8"?><svg xmlns="http://www.w3.org/2000/svg" xmlns:xlink="http://www.w3.org/1999/xlink" fill-opacity="1" color-rendering="auto" color-interpolation="auto" text-rendering="auto" stroke="black" stroke-linecap="square" width="220" stroke-miterlimit="10" shape-rendering="auto" stroke-opacity="1" fill="black" stroke-dasharray="none" font-weight="normal" stroke-width="1" height="140" font-family="'Dialog'" font-style="normal" stroke-linejoin="miter" font-size="12px" stroke-dashoffset="0" image-rendering="auto">
  <!--Generated by ySVG 2.5-->
  <defs id="genericDefs"/>
  <g>
    <defs id="defs1">
      <clipPath clipPathUnits="userSpaceOnUse" id="clipPath1">
        <path d="M0 0 L220 0 L220 140 L0 140 L0 0 Z"/>
      </clipPath>
      <clipPath clipPathUnits="userSpaceOnUse" id="clipPath2">
        <path d="M-15 -15 L205 -15 L205 125 L-15 125 L-15 -15 Z"/>
      </clipPath>
    </defs>
    <g fill="white" text-rendering="geometricPrecision" shape-rendering="geometricPrecision" transform="translate(15,15)" stroke="white">
      <rect x="-15" width="220" height="140" y="-15" clip-path="url(#clipPath2)" stroke="none"/>
    </g>
    <g fill="white" text-rendering="geometricPrecision" shape-rendering="geometricPrecision" transform="matrix(1,0,0,1,15,15)" stroke="white">
      <circle r="15" clip-path="url(#clipPath2)" cx="15" cy="15" stroke="none"/>
    </g>
    <g text-rendering="geometricPrecision" stroke-miterlimit="1.45" shape-rendering="geometricPrecision" transform="matrix(1,0,0,1,15,15)" stroke-linecap="butt">
      <circle fill="none" r="15" clip-path="url(#clipPath2)" cx="15" cy="15"/>
      <text x="10.998" xml:space="preserve" y="19.7139" clip-path="url(#clipPath2)" font-family="sans-serif" stroke="none">A</text>
    </g>
    <g fill="white" text-rendering="geometricPrecision" shape-rendering="geometricPrecision" transform="matrix(1,0,0,1,15,15)" stroke="white">
      <circle r="15" clip-path="url(#clipPath2)" cx="95" cy="15" stroke="none"/>
    </g>
    <g text-rendering="geometricPrecision" stroke-miterlimit="1.45" shape-rendering="geometricPrecision" transform="matrix(1,0,0,1,15,15)" stroke-linecap="butt">
      <circle fill="none" r="15" clip-path="url(#clipPath2)" cx="95" cy="15"/>
      <text x="90.998" xml:space="preserve" y="19.7139" clip-path="url(#clipPath2)" font-family="sans-serif" stroke="none">B</text>
    </g>
    <g fill="white" text-rendering="geometricPrecision" shape-rendering="geometricPrecision" transform="matrix(1,0,0,1,15,15)" stroke="white">
      <circle r="15" clip-path="url(#clipPath2)" cx="175" cy="15" stroke="none"/>
    </g>
    <g text-rendering="geometricPrecision" stroke-miterlimit="1.45" shape-rendering="geometricPrecision" transform="matrix(1,0,0,1,15,15)" stroke-linecap="butt">
      <circle fill="none" r="15" clip-path="url(#clipPath2)" cx="175" cy="15"/>
      <text x="170.667" xml:space="preserve" y="19.7139" clip-path="url(#clipPath2)" font-family="sans-serif" stroke="none">C</text>
    </g>
    <g fill="white" text-rendering="geometricPrecision" shape-rendering="geometricPrecision" transform="matrix(1,0,0,1,15,15)" stroke="white">
      <circle r="15" clip-path="url(#clipPath2)" cx="15" cy="95" stroke="none"/>
    </g>
    <g text-rendering="geometricPrecision" stroke-miterlimit="1.45" shape-rendering="geometricPrecision" transform="matrix(1,0,0,1,15,15)" stroke-linecap="butt">
      <circle fill="none" r="15" clip-path="url(#clipPath2)" cx="15" cy="95"/>
      <text x="10.667" xml:space="preserve" y="99.7139" clip-path="url(#clipPath2)" font-family="sans-serif" stroke="none">D</text>
    </g>
    <g fill="white" text-rendering="geometricPrecision" shape-rendering="geometricPrecision" transform="matrix(1,0,0,1,15,15)" stroke="white">
      <circle r="15" clip-path="url(#clipPath2)" cx="95" cy="95" stroke="none"/>
    </g>
    <g text-rendering="geometricPrecision" stroke-miterlimit="1.45" shape-rendering="geometricPrecision" transform="matrix(1,0,0,1,15,15)" stroke-linecap="butt">
      <circle fill="none" r="15" clip-path="url(#clipPath2)" cx="95" cy="95"/>
      <text x="90.998" xml:space="preserve" y="99.7139" clip-path="url(#clipPath2)" font-family="sans-serif" stroke="none">E</text>
    </g>
    <g fill="white" text-rendering="geometricPrecision" shape-rendering="geometricPrecision" transform="matrix(1,0,0,1,15,15)" stroke="white">
      <circle r="15" clip-path="url(#clipPath2)" cx="175" cy="95" stroke="none"/>
    </g>
    <g text-rendering="geometricPrecision" stroke-miterlimit="1.45" shape-rendering="geometricPrecision" transform="matrix(1,0,0,1,15,15)" stroke-linecap="butt">
      <circle fill="none" r="15" clip-path="url(#clipPath2)" cx="175" cy="95"/>
      <text x="171.335" xml:space="preserve" y="99.7139" clip-path="url(#clipPath2)" font-family="sans-serif" stroke="none">F</text>
      <path fill="none" d="M38 15 L80 15" clip-path="url(#clipPath2)"/>
      <path d="M30 15 L42 20 L39 15 L42 10 Z" clip-path="url(#clipPath2)" stroke="none"/>
      <text x="48.3262" y="19.7139" clip-path="url(#clipPath2)" fill="rgb(51,153,102)" font-family="sans-serif" stroke="none" xml:space="preserve">10</text>
      <path fill="none" d="M118 15 L160 15" clip-path="url(#clipPath2)"/>
      <path d="M110 15 L122 20 L119 15 L122 10 Z" clip-path="url(#clipPath2)" stroke="none"/>
      <text x="128.3262" y="19.7139" clip-path="url(#clipPath2)" fill="rgb(51,153,102)" font-family="sans-serif" stroke="none" xml:space="preserve">20</text>
      <path fill="none" d="M15 38 L15 80" clip-path="url(#clipPath2)"/>
      <path d="M15 30 L10 42 L15 39 L20 42 Z" clip-path="url(#clipPath2)" stroke="none"/>
      <text x="8.3262" y="59.7139" clip-path="url(#clipPath2)" fill="rgb(51,153,102)" font-family="sans-serif" stroke="none" xml:space="preserve">10</text>
      <path fill="none" d="M95 38 L95 80" clip-path="url(#clipPath2)"/>
      <path d="M95 30 L90 42 L95 39 L100 42 Z" clip-path="url(#clipPath2)" stroke="none"/>
      <text x="88.3262" y="59.7139" clip-path="url(#clipPath2)" fill="rgb(51,153,102)" font-family="sans-serif" stroke="none" xml:space="preserve">20</text>
      <path fill="none" d="M111.2635 31.2635 L164.3934 84.3934" clip-path="url(#clipPath2)"/>
      <path d="M105.6066 25.6066 L110.5564 37.6274 L111.9706 31.9706 L117.6274 30.5564 Z" clip-path="url(#clipPath2)" stroke="none"/>
      <text x="139.6523" y="71.04" clip-path="url(#clipPath2)" fill="rgb(51,153,102)" font-family="sans-serif" stroke="none" xml:space="preserve">24</text>
    </g>
  </g>
</svg>
