<?xml version="1.0" encoding="UTF-8"?><svg xmlns="http://www.w3.org/2000/svg" xmlns:xlink="http://www.w3.org/1999/xlink" fill-opacity="1" color-rendering="auto" color-interpolation="auto" text-rendering="auto" stroke="black" stroke-linecap="square" width="300" stroke-miterlimit="10" shape-rendering="auto" stroke-opacity="1" fill="black" stroke-dasharray="none" font-weight="normal" stroke-width="1" height="303" font-family="'Dialog'" font-style="normal" stroke-linejoin="miter" font-size="12px" stroke-dashoffset="0" image-rendering="auto">
  <!--Generated by ySVG 2.5-->
  <defs id="genericDefs"/>
  <g>
    <defs id="defs1">
      <clipPath clipPathUnits="userSpaceOnUse" id="clipPath1">
        <path d="M0 0 L300 0 L300 303 L0 303 L0 0 Z"/>
      </clipPath>
      <clipPath clipPathUnits="userSpaceOnUse" id="clipPath2">
        <path d="M611 283 L911 283 L911 586 L611 586 L611 283 Z"/>
      </clipPath>
    </defs>
    <g fill="white" text-rendering="geometricPrecision" shape-rendering="geometricPrecision" transform="translate(-611,-283)" stroke="white">
      <rect x="611" width="300" height="303" y="283" clip-path="url(#clipPath2)" stroke="none"/>
    </g>
    <g fill="rgb(255,153,0)" text-rendering="geometricPrecision" shape-rendering="geometricPrecision" transform="matrix(1,0,0,1,-611,-283)" stroke="rgb(255,153,0)">
      <circle r="15" clip-path="url(#clipPath2)" cx="841" cy="393.5" stroke="none"/>
    </g>
    <g text-rendering="geometricPrecision" stroke-miterlimit="1.45" shape-rendering="geometricPrecision" transform="matrix(1,0,0,1,-611,-283)" stroke-linecap="butt">
      <circle fill="none" r="15" clip-path="url(#clipPath2)" cx="841" cy="393.5"/>
    </g>
    <g fill="rgb(255,153,0)" text-rendering="geometricPrecision" shape-rendering="geometricPrecision" transform="matrix(1,0,0,1,-611,-283)" stroke="rgb(255,153,0)">
      <circle r="15" clip-path="url(#clipPath2)" cx="841" cy="474.6506" stroke="none"/>
    </g>
    <g text-rendering="geometricPrecision" stroke-miterlimit="1.45" shape-rendering="geometricPrecision" transform="matrix(1,0,0,1,-611,-283)" stroke-linecap="butt">
      <circle fill="none" r="15" clip-path="url(#clipPath2)" cx="841" cy="474.6506"/>
    </g>
    <g fill="rgb(255,153,0)" text-rendering="geometricPrecision" shape-rendering="geometricPrecision" transform="matrix(1,0,0,1,-611,-283)" stroke="rgb(255,153,0)">
      <circle r="15" clip-path="url(#clipPath2)" cx="641" cy="313.5" stroke="none"/>
    </g>
    <g text-rendering="geometricPrecision" stroke-miterlimit="1.45" shape-rendering="geometricPrecision" transform="matrix(1,0,0,1,-611,-283)" stroke-linecap="butt">
      <circle fill="none" r="15" clip-path="url(#clipPath2)" cx="641" cy="313.5"/>
    </g>
    <g fill="rgb(255,153,0)" text-rendering="geometricPrecision" shape-rendering="geometricPrecision" transform="matrix(1,0,0,1,-611,-283)" stroke="rgb(255,153,0)">
      <circle r="15" clip-path="url(#clipPath2)" cx="641" cy="393.5" stroke="none"/>
    </g>
    <g text-rendering="geometricPrecision" stroke-miterlimit="1.45" shape-rendering="geometricPrecision" transform="matrix(1,0,0,1,-611,-283)" stroke-linecap="butt">
      <circle fill="none" r="15" clip-path="url(#clipPath2)" cx="641" cy="393.5"/>
    </g>
    <g fill="rgb(255,153,0)" text-rendering="geometricPrecision" shape-rendering="geometricPrecision" transform="matrix(1,0,0,1,-611,-283)" stroke="rgb(255,153,0)">
      <circle r="15" clip-path="url(#clipPath2)" cx="721" cy="393.5" stroke="none"/>
    </g>
    <g text-rendering="geometricPrecision" stroke-miterlimit="1.45" shape-rendering="geometricPrecision" transform="matrix(1,0,0,1,-611,-283)" stroke-linecap="butt">
      <circle fill="none" r="15" clip-path="url(#clipPath2)" cx="721" cy="393.5"/>
    </g>
    <g fill="rgb(255,153,0)" text-rendering="geometricPrecision" shape-rendering="geometricPrecision" transform="matrix(1,0,0,1,-611,-283)" stroke="rgb(255,153,0)">
      <circle r="15" clip-path="url(#clipPath2)" cx="801" cy="313.5" stroke="none"/>
    </g>
    <g text-rendering="geometricPrecision" stroke-miterlimit="1.45" shape-rendering="geometricPrecision" transform="matrix(1,0,0,1,-611,-283)" stroke-linecap="butt">
      <circle fill="none" r="15" clip-path="url(#clipPath2)" cx="801" cy="313.5"/>
    </g>
    <g fill="rgb(255,153,0)" text-rendering="geometricPrecision" shape-rendering="geometricPrecision" transform="matrix(1,0,0,1,-611,-283)" stroke="rgb(255,153,0)">
      <circle r="15" clip-path="url(#clipPath2)" cx="881" cy="313.5" stroke="none"/>
    </g>
    <g text-rendering="geometricPrecision" stroke-miterlimit="1.45" shape-rendering="geometricPrecision" transform="matrix(1,0,0,1,-611,-283)" stroke-linecap="butt">
      <circle fill="none" r="15" clip-path="url(#clipPath2)" cx="881" cy="313.5"/>
    </g>
    <g fill="rgb(255,153,0)" text-rendering="geometricPrecision" shape-rendering="geometricPrecision" transform="matrix(1,0,0,1,-611,-283)" stroke="rgb(255,153,0)">
      <circle r="15" clip-path="url(#clipPath2)" cx="801" cy="393.5" stroke="none"/>
    </g>
    <g text-rendering="geometricPrecision" stroke-miterlimit="1.45" shape-rendering="geometricPrecision" transform="matrix(1,0,0,1,-611,-283)" stroke-linecap="butt">
      <circle fill="none" r="15" clip-path="url(#clipPath2)" cx="801" cy="393.5"/>
    </g>
    <g fill="rgb(255,153,0)" text-rendering="geometricPrecision" shape-rendering="geometricPrecision" transform="matrix(1,0,0,1,-611,-283)" stroke="rgb(255,153,0)">
      <circle r="15" clip-path="url(#clipPath2)" cx="881" cy="393.5" stroke="none"/>
    </g>
    <g text-rendering="geometricPrecision" stroke-miterlimit="1.45" shape-rendering="geometricPrecision" transform="matrix(1,0,0,1,-611,-283)" stroke-linecap="butt">
      <circle fill="none" r="15" clip-path="url(#clipPath2)" cx="881" cy="393.5"/>
    </g>
    <g fill="rgb(255,153,0)" text-rendering="geometricPrecision" shape-rendering="geometricPrecision" transform="matrix(1,0,0,1,-611,-283)" stroke="rgb(255,153,0)">
      <circle r="15" clip-path="url(#clipPath2)" cx="641" cy="475.036" stroke="none"/>
    </g>
    <g text-rendering="geometricPrecision" stroke-miterlimit="1.45" shape-rendering="geometricPrecision" transform="matrix(1,0,0,1,-611,-283)" stroke-linecap="butt">
      <circle fill="none" r="15" clip-path="url(#clipPath2)" cx="641" cy="475.036"/>
    </g>
    <g fill="rgb(255,153,0)" text-rendering="geometricPrecision" shape-rendering="geometricPrecision" transform="matrix(1,0,0,1,-611,-283)" stroke="rgb(255,153,0)">
      <circle r="15" clip-path="url(#clipPath2)" cx="721" cy="475.036" stroke="none"/>
    </g>
    <g text-rendering="geometricPrecision" stroke-miterlimit="1.45" shape-rendering="geometricPrecision" transform="matrix(1,0,0,1,-611,-283)" stroke-linecap="butt">
      <circle fill="none" r="15" clip-path="url(#clipPath2)" cx="721" cy="475.036"/>
    </g>
    <g fill="rgb(255,153,0)" text-rendering="geometricPrecision" shape-rendering="geometricPrecision" transform="matrix(1,0,0,1,-611,-283)" stroke="rgb(255,153,0)">
      <circle r="15" clip-path="url(#clipPath2)" cx="641" cy="555.036" stroke="none"/>
    </g>
    <g text-rendering="geometricPrecision" stroke-miterlimit="1.45" shape-rendering="geometricPrecision" transform="matrix(1,0,0,1,-611,-283)" stroke-linecap="butt">
      <circle fill="none" r="15" clip-path="url(#clipPath2)" cx="641" cy="555.036"/>
    </g>
    <g fill="rgb(255,153,0)" text-rendering="geometricPrecision" shape-rendering="geometricPrecision" transform="matrix(1,0,0,1,-611,-283)" stroke="rgb(255,153,0)">
      <circle r="15" clip-path="url(#clipPath2)" cx="721" cy="555.036" stroke="none"/>
    </g>
    <g text-rendering="geometricPrecision" stroke-miterlimit="1.45" shape-rendering="geometricPrecision" transform="matrix(1,0,0,1,-611,-283)" stroke-linecap="butt">
      <circle fill="none" r="15" clip-path="url(#clipPath2)" cx="721" cy="555.036"/>
    </g>
    <g fill="rgb(255,153,0)" text-rendering="geometricPrecision" shape-rendering="geometricPrecision" transform="matrix(1,0,0,1,-611,-283)" stroke="rgb(255,153,0)">
      <circle r="15" clip-path="url(#clipPath2)" cx="881" cy="473.5" stroke="none"/>
    </g>
    <g text-rendering="geometricPrecision" stroke-miterlimit="1.45" shape-rendering="geometricPrecision" transform="matrix(1,0,0,1,-611,-283)" stroke-linecap="butt">
      <circle fill="none" r="15" clip-path="url(#clipPath2)" cx="881" cy="473.5"/>
    </g>
    <g fill="rgb(255,153,0)" text-rendering="geometricPrecision" shape-rendering="geometricPrecision" transform="matrix(1,0,0,1,-611,-283)" stroke="rgb(255,153,0)">
      <circle r="15" clip-path="url(#clipPath2)" cx="801" cy="553.5" stroke="none"/>
    </g>
    <g text-rendering="geometricPrecision" stroke-miterlimit="1.45" shape-rendering="geometricPrecision" transform="matrix(1,0,0,1,-611,-283)" stroke-linecap="butt">
      <circle fill="none" r="15" clip-path="url(#clipPath2)" cx="801" cy="553.5"/>
    </g>
    <g fill="rgb(255,153,0)" text-rendering="geometricPrecision" shape-rendering="geometricPrecision" transform="matrix(1,0,0,1,-611,-283)" stroke="rgb(255,153,0)">
      <circle r="15" clip-path="url(#clipPath2)" cx="881" cy="553.5" stroke="none"/>
    </g>
    <g text-rendering="geometricPrecision" stroke-miterlimit="1.45" shape-rendering="geometricPrecision" transform="matrix(1,0,0,1,-611,-283)" stroke-linecap="butt">
      <circle fill="none" r="15" clip-path="url(#clipPath2)" cx="881" cy="553.5"/>
    </g>
    <g fill="rgb(255,153,0)" text-rendering="geometricPrecision" shape-rendering="geometricPrecision" transform="matrix(1,0,0,1,-611,-283)" stroke="rgb(255,153,0)">
      <circle r="15" clip-path="url(#clipPath2)" cx="761" cy="313.5" stroke="none"/>
    </g>
    <g text-rendering="geometricPrecision" stroke-miterlimit="1.45" shape-rendering="geometricPrecision" transform="matrix(1,0,0,1,-611,-283)" stroke-linecap="butt">
      <circle fill="none" r="15" clip-path="url(#clipPath2)" cx="761" cy="313.5"/>
    </g>
    <g fill="rgb(255,153,0)" text-rendering="geometricPrecision" shape-rendering="geometricPrecision" transform="matrix(1,0,0,1,-611,-283)" stroke="rgb(255,153,0)">
      <circle r="15" clip-path="url(#clipPath2)" cx="841" cy="313.5" stroke="none"/>
    </g>
    <g text-rendering="geometricPrecision" stroke-miterlimit="1.45" shape-rendering="geometricPrecision" transform="matrix(1,0,0,1,-611,-283)" stroke-linecap="butt">
      <circle fill="none" r="15" clip-path="url(#clipPath2)" cx="841" cy="313.5"/>
    </g>
    <g fill="rgb(255,153,0)" text-rendering="geometricPrecision" shape-rendering="geometricPrecision" transform="matrix(1,0,0,1,-611,-283)" stroke="rgb(255,153,0)">
      <circle r="15" clip-path="url(#clipPath2)" cx="681" cy="555.036" stroke="none"/>
    </g>
    <g text-rendering="geometricPrecision" stroke-miterlimit="1.45" shape-rendering="geometricPrecision" transform="matrix(1,0,0,1,-611,-283)" stroke-linecap="butt">
      <circle fill="none" r="15" clip-path="url(#clipPath2)" cx="681" cy="555.036"/>
    </g>
    <g fill="rgb(255,153,0)" text-rendering="geometricPrecision" shape-rendering="geometricPrecision" transform="matrix(1,0,0,1,-611,-283)" stroke="rgb(255,153,0)">
      <circle r="15" clip-path="url(#clipPath2)" cx="761" cy="553.5" stroke="none"/>
    </g>
    <g text-rendering="geometricPrecision" stroke-miterlimit="1.45" shape-rendering="geometricPrecision" transform="matrix(1,0,0,1,-611,-283)" stroke-linecap="butt">
      <circle fill="none" r="15" clip-path="url(#clipPath2)" cx="761" cy="553.5"/>
    </g>
    <g fill="rgb(255,153,0)" text-rendering="geometricPrecision" shape-rendering="geometricPrecision" transform="matrix(1,0,0,1,-611,-283)" stroke="rgb(255,153,0)">
      <circle r="15" clip-path="url(#clipPath2)" cx="841" cy="552.3494" stroke="none"/>
    </g>
    <g text-rendering="geometricPrecision" stroke-miterlimit="1.45" shape-rendering="geometricPrecision" transform="matrix(1,0,0,1,-611,-283)" stroke-linecap="butt">
      <circle fill="none" r="15" clip-path="url(#clipPath2)" cx="841" cy="552.3494"/>
    </g>
    <g fill="rgb(255,153,0)" text-rendering="geometricPrecision" shape-rendering="geometricPrecision" transform="matrix(1,0,0,1,-611,-283)" stroke="rgb(255,153,0)">
      <circle r="15" clip-path="url(#clipPath2)" cx="641" cy="355.036" stroke="none"/>
    </g>
    <g text-rendering="geometricPrecision" stroke-miterlimit="1.45" shape-rendering="geometricPrecision" transform="matrix(1,0,0,1,-611,-283)" stroke-linecap="butt">
      <circle fill="none" r="15" clip-path="url(#clipPath2)" cx="641" cy="355.036"/>
    </g>
    <g fill="rgb(255,153,0)" text-rendering="geometricPrecision" shape-rendering="geometricPrecision" transform="matrix(1,0,0,1,-611,-283)" stroke="rgb(255,153,0)">
      <circle r="15" clip-path="url(#clipPath2)" cx="641" cy="436.572" stroke="none"/>
    </g>
    <g text-rendering="geometricPrecision" stroke-miterlimit="1.45" shape-rendering="geometricPrecision" transform="matrix(1,0,0,1,-611,-283)" stroke-linecap="butt">
      <circle fill="none" r="15" clip-path="url(#clipPath2)" cx="641" cy="436.572"/>
    </g>
    <g fill="rgb(255,153,0)" text-rendering="geometricPrecision" shape-rendering="geometricPrecision" transform="matrix(1,0,0,1,-611,-283)" stroke="rgb(255,153,0)">
      <circle r="15" clip-path="url(#clipPath2)" cx="641" cy="516.572" stroke="none"/>
    </g>
    <g text-rendering="geometricPrecision" stroke-miterlimit="1.45" shape-rendering="geometricPrecision" transform="matrix(1,0,0,1,-611,-283)" stroke-linecap="butt">
      <circle fill="none" r="15" clip-path="url(#clipPath2)" cx="641" cy="516.572"/>
    </g>
    <g fill="rgb(255,153,0)" text-rendering="geometricPrecision" shape-rendering="geometricPrecision" transform="matrix(1,0,0,1,-611,-283)" stroke="rgb(255,153,0)">
      <circle r="15" clip-path="url(#clipPath2)" cx="721" cy="433.5" stroke="none"/>
    </g>
    <g text-rendering="geometricPrecision" stroke-miterlimit="1.45" shape-rendering="geometricPrecision" transform="matrix(1,0,0,1,-611,-283)" stroke-linecap="butt">
      <circle fill="none" r="15" clip-path="url(#clipPath2)" cx="721" cy="433.5"/>
    </g>
    <g fill="rgb(255,153,0)" text-rendering="geometricPrecision" shape-rendering="geometricPrecision" transform="matrix(1,0,0,1,-611,-283)" stroke="rgb(255,153,0)">
      <circle r="15" clip-path="url(#clipPath2)" cx="721" cy="513.5" stroke="none"/>
    </g>
    <g text-rendering="geometricPrecision" stroke-miterlimit="1.45" shape-rendering="geometricPrecision" transform="matrix(1,0,0,1,-611,-283)" stroke-linecap="butt">
      <circle fill="none" r="15" clip-path="url(#clipPath2)" cx="721" cy="513.5"/>
    </g>
    <g fill="rgb(255,153,0)" text-rendering="geometricPrecision" shape-rendering="geometricPrecision" transform="matrix(1,0,0,1,-611,-283)" stroke="rgb(255,153,0)">
      <circle r="15" clip-path="url(#clipPath2)" cx="801" cy="433.5" stroke="none"/>
    </g>
    <g text-rendering="geometricPrecision" stroke-miterlimit="1.45" shape-rendering="geometricPrecision" transform="matrix(1,0,0,1,-611,-283)" stroke-linecap="butt">
      <circle fill="none" r="15" clip-path="url(#clipPath2)" cx="801" cy="433.5"/>
    </g>
    <g fill="rgb(255,153,0)" text-rendering="geometricPrecision" shape-rendering="geometricPrecision" transform="matrix(1,0,0,1,-611,-283)" stroke="rgb(255,153,0)">
      <circle r="15" clip-path="url(#clipPath2)" cx="801" cy="513.5" stroke="none"/>
    </g>
    <g text-rendering="geometricPrecision" stroke-miterlimit="1.45" shape-rendering="geometricPrecision" transform="matrix(1,0,0,1,-611,-283)" stroke-linecap="butt">
      <circle fill="none" r="15" clip-path="url(#clipPath2)" cx="801" cy="513.5"/>
    </g>
    <g fill="rgb(255,153,0)" text-rendering="geometricPrecision" shape-rendering="geometricPrecision" transform="matrix(1,0,0,1,-611,-283)" stroke="rgb(255,153,0)">
      <circle r="15" clip-path="url(#clipPath2)" cx="881" cy="351.964" stroke="none"/>
    </g>
    <g text-rendering="geometricPrecision" stroke-miterlimit="1.45" shape-rendering="geometricPrecision" transform="matrix(1,0,0,1,-611,-283)" stroke-linecap="butt">
      <circle fill="none" r="15" clip-path="url(#clipPath2)" cx="881" cy="351.964"/>
    </g>
    <g fill="rgb(255,153,0)" text-rendering="geometricPrecision" shape-rendering="geometricPrecision" transform="matrix(1,0,0,1,-611,-283)" stroke="rgb(255,153,0)">
      <circle r="15" clip-path="url(#clipPath2)" cx="881" cy="433.5" stroke="none"/>
    </g>
    <g text-rendering="geometricPrecision" stroke-miterlimit="1.45" shape-rendering="geometricPrecision" transform="matrix(1,0,0,1,-611,-283)" stroke-linecap="butt">
      <circle fill="none" r="15" clip-path="url(#clipPath2)" cx="881" cy="433.5"/>
    </g>
    <g fill="rgb(255,153,0)" text-rendering="geometricPrecision" shape-rendering="geometricPrecision" transform="matrix(1,0,0,1,-611,-283)" stroke="rgb(255,153,0)">
      <circle r="15" clip-path="url(#clipPath2)" cx="881" cy="513.5" stroke="none"/>
    </g>
    <g text-rendering="geometricPrecision" stroke-miterlimit="1.45" shape-rendering="geometricPrecision" transform="matrix(1,0,0,1,-611,-283)" stroke-linecap="butt">
      <circle fill="none" r="15" clip-path="url(#clipPath2)" cx="881" cy="513.5"/>
    </g>
    <g fill="rgb(255,153,0)" text-rendering="geometricPrecision" shape-rendering="geometricPrecision" transform="matrix(1,0,0,1,-611,-283)" stroke="rgb(255,153,0)">
      <circle r="15" clip-path="url(#clipPath2)" cx="721" cy="313.5" stroke="none"/>
    </g>
    <g text-rendering="geometricPrecision" stroke-miterlimit="1.45" shape-rendering="geometricPrecision" transform="matrix(1,0,0,1,-611,-283)" stroke-linecap="butt">
      <circle fill="none" r="15" clip-path="url(#clipPath2)" cx="721" cy="313.5"/>
    </g>
    <g fill="rgb(255,153,0)" text-rendering="geometricPrecision" shape-rendering="geometricPrecision" transform="matrix(1,0,0,1,-611,-283)" stroke="rgb(255,153,0)">
      <circle r="15" clip-path="url(#clipPath2)" cx="681" cy="313.5" stroke="none"/>
    </g>
    <g text-rendering="geometricPrecision" stroke-miterlimit="1.45" shape-rendering="geometricPrecision" transform="matrix(1,0,0,1,-611,-283)" stroke-linecap="butt">
      <circle fill="none" r="15" clip-path="url(#clipPath2)" cx="681" cy="313.5"/>
    </g>
    <g fill="white" text-rendering="geometricPrecision" shape-rendering="geometricPrecision" transform="matrix(1,0,0,1,-611,-283)" stroke="white">
      <circle r="15" clip-path="url(#clipPath2)" cx="841" cy="515.3201" stroke="none"/>
    </g>
    <g text-rendering="geometricPrecision" stroke-miterlimit="1.45" shape-rendering="geometricPrecision" font-family="sans-serif" transform="matrix(1,0,0,1,-611,-283)" stroke-linecap="butt">
      <text x="836.998" xml:space="preserve" y="520.0339" clip-path="url(#clipPath2)" stroke="none">B</text>
    </g>
    <g fill="white" text-rendering="geometricPrecision" shape-rendering="geometricPrecision" transform="matrix(1,0,0,1,-611,-283)" stroke="white">
      <circle r="15" clip-path="url(#clipPath2)" cx="681" cy="355.3201" stroke="none"/>
    </g>
    <g text-rendering="geometricPrecision" stroke-miterlimit="1.45" shape-rendering="geometricPrecision" font-family="sans-serif" transform="matrix(1,0,0,1,-611,-283)" stroke-linecap="butt">
      <text x="676.998" xml:space="preserve" y="360.0339" clip-path="url(#clipPath2)" stroke="none">A</text>
    </g>
    <g text-rendering="geometricPrecision" stroke-miterlimit="1.45" shape-rendering="geometricPrecision" transform="matrix(1,0,0,1,-611,-283)" stroke-linecap="butt">
      <path fill="none" d="M841 378.5 L841 378.5" clip-path="url(#clipPath2)"/>
    </g>
    <g text-rendering="geometricPrecision" stroke-miterlimit="1.45" shape-rendering="geometricPrecision" transform="matrix(1,0,0,1,-611,-283)" stroke-linecap="butt">
      <path fill="none" d="M841 459.6506 L841 459.6506" clip-path="url(#clipPath2)"/>
    </g>
    <g text-rendering="geometricPrecision" stroke-miterlimit="1.45" shape-rendering="geometricPrecision" transform="matrix(1,0,0,1,-611,-283)" stroke-linecap="butt">
      <path fill="none" d="M641 298.5 L641 298.5" clip-path="url(#clipPath2)"/>
    </g>
    <g text-rendering="geometricPrecision" stroke-miterlimit="1.45" shape-rendering="geometricPrecision" transform="matrix(1,0,0,1,-611,-283)" stroke-linecap="butt">
      <path fill="none" d="M641 378.5 L641 378.5" clip-path="url(#clipPath2)"/>
    </g>
    <g text-rendering="geometricPrecision" stroke-miterlimit="1.45" shape-rendering="geometricPrecision" transform="matrix(1,0,0,1,-611,-283)" stroke-linecap="butt">
      <path fill="none" d="M721 378.5 L721 378.5" clip-path="url(#clipPath2)"/>
    </g>
    <g text-rendering="geometricPrecision" stroke-miterlimit="1.45" shape-rendering="geometricPrecision" transform="matrix(1,0,0,1,-611,-283)" stroke-linecap="butt">
      <path fill="none" d="M801 298.5 L801 298.5" clip-path="url(#clipPath2)"/>
    </g>
    <g text-rendering="geometricPrecision" stroke-miterlimit="1.45" shape-rendering="geometricPrecision" transform="matrix(1,0,0,1,-611,-283)" stroke-linecap="butt">
      <path fill="none" d="M881 298.5 L881 298.5" clip-path="url(#clipPath2)"/>
    </g>
    <g text-rendering="geometricPrecision" stroke-miterlimit="1.45" shape-rendering="geometricPrecision" transform="matrix(1,0,0,1,-611,-283)" stroke-linecap="butt">
      <path fill="none" d="M801 378.5 L801 378.5" clip-path="url(#clipPath2)"/>
    </g>
    <g text-rendering="geometricPrecision" stroke-miterlimit="1.45" shape-rendering="geometricPrecision" transform="matrix(1,0,0,1,-611,-283)" stroke-linecap="butt">
      <path fill="none" d="M826 393.5 L816 393.5" clip-path="url(#clipPath2)"/>
    </g>
    <g text-rendering="geometricPrecision" stroke-miterlimit="1.45" shape-rendering="geometricPrecision" transform="matrix(1,0,0,1,-611,-283)" stroke-linecap="butt">
      <path fill="none" d="M881 378.5 L881 378.5" clip-path="url(#clipPath2)"/>
    </g>
    <g text-rendering="geometricPrecision" stroke-miterlimit="1.45" shape-rendering="geometricPrecision" transform="matrix(1,0,0,1,-611,-283)" stroke-linecap="butt">
      <path fill="none" d="M855.9977 393.7601 L866.0084 393.9337" clip-path="url(#clipPath2)"/>
    </g>
    <g text-rendering="geometricPrecision" stroke-miterlimit="1.45" shape-rendering="geometricPrecision" transform="matrix(1,0,0,1,-611,-283)" stroke-linecap="butt">
      <path fill="none" d="M641 460.036 L641 460.036" clip-path="url(#clipPath2)"/>
    </g>
    <g text-rendering="geometricPrecision" stroke-miterlimit="1.45" shape-rendering="geometricPrecision" transform="matrix(1,0,0,1,-611,-283)" stroke-linecap="butt">
      <path fill="none" d="M721 460.036 L721 460.036" clip-path="url(#clipPath2)"/>
    </g>
    <g text-rendering="geometricPrecision" stroke-miterlimit="1.45" shape-rendering="geometricPrecision" transform="matrix(1,0,0,1,-611,-283)" stroke-linecap="butt">
      <path fill="none" d="M641 540.036 L641 540.036" clip-path="url(#clipPath2)"/>
    </g>
    <g text-rendering="geometricPrecision" stroke-miterlimit="1.45" shape-rendering="geometricPrecision" transform="matrix(1,0,0,1,-611,-283)" stroke-linecap="butt">
      <path fill="none" d="M721 540.036 L721 540.036" clip-path="url(#clipPath2)"/>
    </g>
    <g text-rendering="geometricPrecision" stroke-miterlimit="1.45" shape-rendering="geometricPrecision" transform="matrix(1,0,0,1,-611,-283)" stroke-linecap="butt">
      <path fill="none" d="M881 458.5 L881 458.5" clip-path="url(#clipPath2)"/>
    </g>
    <g text-rendering="geometricPrecision" stroke-miterlimit="1.45" shape-rendering="geometricPrecision" transform="matrix(1,0,0,1,-611,-283)" stroke-linecap="butt">
      <path fill="none" d="M866 473.5 L855.9902 473.5" clip-path="url(#clipPath2)"/>
    </g>
    <g text-rendering="geometricPrecision" stroke-miterlimit="1.45" shape-rendering="geometricPrecision" transform="matrix(1,0,0,1,-611,-283)" stroke-linecap="butt">
      <path fill="none" d="M801 538.5 L801 538.5" clip-path="url(#clipPath2)"/>
    </g>
    <g text-rendering="geometricPrecision" stroke-miterlimit="1.45" shape-rendering="geometricPrecision" transform="matrix(1,0,0,1,-611,-283)" stroke-linecap="butt">
      <path fill="none" d="M881 538.5 L881 538.5" clip-path="url(#clipPath2)"/>
    </g>
    <g text-rendering="geometricPrecision" stroke-miterlimit="1.45" shape-rendering="geometricPrecision" transform="matrix(1,0,0,1,-611,-283)" stroke-linecap="butt">
      <path fill="none" d="M761 298.5 L761 298.5" clip-path="url(#clipPath2)"/>
    </g>
    <g text-rendering="geometricPrecision" stroke-miterlimit="1.45" shape-rendering="geometricPrecision" transform="matrix(1,0,0,1,-611,-283)" stroke-linecap="butt">
      <path fill="none" d="M776 313.5 L786 313.5" clip-path="url(#clipPath2)"/>
    </g>
    <g text-rendering="geometricPrecision" stroke-miterlimit="1.45" shape-rendering="geometricPrecision" transform="matrix(1,0,0,1,-611,-283)" stroke-linecap="butt">
      <path fill="none" d="M841 298.5 L841 298.5" clip-path="url(#clipPath2)"/>
    </g>
    <g text-rendering="geometricPrecision" stroke-miterlimit="1.45" shape-rendering="geometricPrecision" transform="matrix(1,0,0,1,-611,-283)" stroke-linecap="butt">
      <path fill="none" d="M816 313.5 L826 313.5" clip-path="url(#clipPath2)"/>
      <path fill="none" d="M856 313.5 L866 313.5" clip-path="url(#clipPath2)"/>
    </g>
    <g text-rendering="geometricPrecision" stroke-miterlimit="1.45" shape-rendering="geometricPrecision" transform="matrix(1,0,0,1,-611,-283)" stroke-linecap="butt">
      <path fill="none" d="M681 540.036 L681 540.036" clip-path="url(#clipPath2)"/>
    </g>
    <g text-rendering="geometricPrecision" stroke-miterlimit="1.45" shape-rendering="geometricPrecision" transform="matrix(1,0,0,1,-611,-283)" stroke-linecap="butt">
      <path fill="none" d="M706 555.036 L696 555.036" clip-path="url(#clipPath2)"/>
      <path fill="none" d="M666 555.036 L656 555.036" clip-path="url(#clipPath2)"/>
    </g>
    <g text-rendering="geometricPrecision" stroke-miterlimit="1.45" shape-rendering="geometricPrecision" transform="matrix(1,0,0,1,-611,-283)" stroke-linecap="butt">
      <path fill="none" d="M761 538.5 L761 538.5" clip-path="url(#clipPath2)"/>
    </g>
    <g text-rendering="geometricPrecision" stroke-miterlimit="1.45" shape-rendering="geometricPrecision" transform="matrix(1,0,0,1,-611,-283)" stroke-linecap="butt">
      <path fill="none" d="M786 553.5 L776 553.5" clip-path="url(#clipPath2)"/>
      <path fill="none" d="M746.0004 553.6137 L735.963 553.6898" clip-path="url(#clipPath2)"/>
    </g>
    <g text-rendering="geometricPrecision" stroke-miterlimit="1.45" shape-rendering="geometricPrecision" transform="matrix(1,0,0,1,-611,-283)" stroke-linecap="butt">
      <path fill="none" d="M841 537.3494 L841 537.3494" clip-path="url(#clipPath2)"/>
    </g>
    <g text-rendering="geometricPrecision" stroke-miterlimit="1.45" shape-rendering="geometricPrecision" transform="matrix(1,0,0,1,-611,-283)" stroke-linecap="butt">
      <path fill="none" d="M866.0062 553.0687 L855.994 552.7807" clip-path="url(#clipPath2)"/>
      <path fill="none" d="M826.0417 552.9039 L816.0394 553.2747" clip-path="url(#clipPath2)"/>
    </g>
    <g text-rendering="geometricPrecision" stroke-miterlimit="1.45" shape-rendering="geometricPrecision" transform="matrix(1,0,0,1,-611,-283)" stroke-linecap="butt">
      <path fill="none" d="M641 340.036 L641 340.036" clip-path="url(#clipPath2)"/>
    </g>
    <g text-rendering="geometricPrecision" stroke-miterlimit="1.45" shape-rendering="geometricPrecision" transform="matrix(1,0,0,1,-611,-283)" stroke-linecap="butt">
      <path fill="none" d="M641 328.5 L641 340.036" clip-path="url(#clipPath2)"/>
      <path fill="none" d="M641 370.036 L641 378.5" clip-path="url(#clipPath2)"/>
    </g>
    <g text-rendering="geometricPrecision" stroke-miterlimit="1.45" shape-rendering="geometricPrecision" transform="matrix(1,0,0,1,-611,-283)" stroke-linecap="butt">
      <path fill="none" d="M641 421.572 L641 421.572" clip-path="url(#clipPath2)"/>
    </g>
    <g text-rendering="geometricPrecision" stroke-miterlimit="1.45" shape-rendering="geometricPrecision" transform="matrix(1,0,0,1,-611,-283)" stroke-linecap="butt">
      <path fill="none" d="M641 408.5 L641 421.572" clip-path="url(#clipPath2)"/>
      <path fill="none" d="M641 451.572 L641 460.036" clip-path="url(#clipPath2)"/>
    </g>
    <g text-rendering="geometricPrecision" stroke-miterlimit="1.45" shape-rendering="geometricPrecision" transform="matrix(1,0,0,1,-611,-283)" stroke-linecap="butt">
      <path fill="none" d="M641 501.572 L641 501.572" clip-path="url(#clipPath2)"/>
    </g>
    <g text-rendering="geometricPrecision" stroke-miterlimit="1.45" shape-rendering="geometricPrecision" transform="matrix(1,0,0,1,-611,-283)" stroke-linecap="butt">
      <path fill="none" d="M641 490.036 L641 501.572" clip-path="url(#clipPath2)"/>
      <path fill="none" d="M641 531.572 L641 540.036" clip-path="url(#clipPath2)"/>
    </g>
    <g text-rendering="geometricPrecision" stroke-miterlimit="1.45" shape-rendering="geometricPrecision" transform="matrix(1,0,0,1,-611,-283)" stroke-linecap="butt">
      <path fill="none" d="M721 418.5 L721 418.5" clip-path="url(#clipPath2)"/>
    </g>
    <g text-rendering="geometricPrecision" stroke-miterlimit="1.45" shape-rendering="geometricPrecision" transform="matrix(1,0,0,1,-611,-283)" stroke-linecap="butt">
      <path fill="none" d="M721 460.036 L721 448.5" clip-path="url(#clipPath2)"/>
      <path fill="none" d="M721 418.5 L721 408.5" clip-path="url(#clipPath2)"/>
    </g>
    <g text-rendering="geometricPrecision" stroke-miterlimit="1.45" shape-rendering="geometricPrecision" transform="matrix(1,0,0,1,-611,-283)" stroke-linecap="butt">
      <path fill="none" d="M721 498.5 L721 498.5" clip-path="url(#clipPath2)"/>
    </g>
    <g text-rendering="geometricPrecision" stroke-miterlimit="1.45" shape-rendering="geometricPrecision" transform="matrix(1,0,0,1,-611,-283)" stroke-linecap="butt">
      <path fill="none" d="M721 540.036 L721 528.5" clip-path="url(#clipPath2)"/>
      <path fill="none" d="M721 498.5 L721 490.036" clip-path="url(#clipPath2)"/>
    </g>
    <g text-rendering="geometricPrecision" stroke-miterlimit="1.45" shape-rendering="geometricPrecision" transform="matrix(1,0,0,1,-611,-283)" stroke-linecap="butt">
      <path fill="none" d="M801 418.5 L801 418.5" clip-path="url(#clipPath2)"/>
    </g>
    <g text-rendering="geometricPrecision" stroke-miterlimit="1.45" shape-rendering="geometricPrecision" transform="matrix(1,0,0,1,-611,-283)" stroke-linecap="butt">
      <path fill="none" d="M801 408.5 L801 418.5" clip-path="url(#clipPath2)"/>
    </g>
    <g text-rendering="geometricPrecision" stroke-miterlimit="1.45" shape-rendering="geometricPrecision" transform="matrix(1,0,0,1,-611,-283)" stroke-linecap="butt">
      <path fill="none" d="M801 498.5 L801 498.5" clip-path="url(#clipPath2)"/>
    </g>
    <g text-rendering="geometricPrecision" stroke-miterlimit="1.45" shape-rendering="geometricPrecision" transform="matrix(1,0,0,1,-611,-283)" stroke-linecap="butt">
      <path fill="none" d="M801 538.5 L801 528.5" clip-path="url(#clipPath2)"/>
    </g>
    <g text-rendering="geometricPrecision" stroke-miterlimit="1.45" shape-rendering="geometricPrecision" transform="matrix(1,0,0,1,-611,-283)" stroke-linecap="butt">
      <path fill="none" d="M881 336.964 L881 336.964" clip-path="url(#clipPath2)"/>
    </g>
    <g text-rendering="geometricPrecision" stroke-miterlimit="1.45" shape-rendering="geometricPrecision" transform="matrix(1,0,0,1,-611,-283)" stroke-linecap="butt">
      <path fill="none" d="M881.181 328.4989 L881.283 336.954" clip-path="url(#clipPath2)"/>
      <path fill="none" d="M881 366.964 L881 378.5" clip-path="url(#clipPath2)"/>
    </g>
    <g text-rendering="geometricPrecision" stroke-miterlimit="1.45" shape-rendering="geometricPrecision" transform="matrix(1,0,0,1,-611,-283)" stroke-linecap="butt">
      <path fill="none" d="M881 418.5 L881 418.5" clip-path="url(#clipPath2)"/>
    </g>
    <g text-rendering="geometricPrecision" stroke-miterlimit="1.45" shape-rendering="geometricPrecision" transform="matrix(1,0,0,1,-611,-283)" stroke-linecap="butt">
      <path fill="none" d="M881 408.5 L881 418.5" clip-path="url(#clipPath2)"/>
      <path fill="none" d="M881 448.5 L881 458.5" clip-path="url(#clipPath2)"/>
    </g>
    <g text-rendering="geometricPrecision" stroke-miterlimit="1.45" shape-rendering="geometricPrecision" transform="matrix(1,0,0,1,-611,-283)" stroke-linecap="butt">
      <path fill="none" d="M881 498.5 L881 498.5" clip-path="url(#clipPath2)"/>
    </g>
    <g text-rendering="geometricPrecision" stroke-miterlimit="1.45" shape-rendering="geometricPrecision" transform="matrix(1,0,0,1,-611,-283)" stroke-linecap="butt">
      <path fill="none" d="M881 488.5 L881 498.5" clip-path="url(#clipPath2)"/>
      <path fill="none" d="M881 528.5 L881 538.5" clip-path="url(#clipPath2)"/>
    </g>
    <g text-rendering="geometricPrecision" stroke-miterlimit="1.45" shape-rendering="geometricPrecision" transform="matrix(1,0,0,1,-611,-283)" stroke-linecap="butt">
      <path fill="none" d="M721 298.5 L721 298.5" clip-path="url(#clipPath2)"/>
    </g>
    <g text-rendering="geometricPrecision" stroke-miterlimit="1.45" shape-rendering="geometricPrecision" transform="matrix(1,0,0,1,-611,-283)" stroke-linecap="butt">
      <path fill="none" d="M736 313.5 L746 313.5" clip-path="url(#clipPath2)"/>
    </g>
    <g text-rendering="geometricPrecision" stroke-miterlimit="1.45" shape-rendering="geometricPrecision" transform="matrix(1,0,0,1,-611,-283)" stroke-linecap="butt">
      <path fill="none" d="M681 298.5 L681 298.5" clip-path="url(#clipPath2)"/>
    </g>
    <g text-rendering="geometricPrecision" stroke-miterlimit="1.45" shape-rendering="geometricPrecision" transform="matrix(1,0,0,1,-611,-283)" stroke-linecap="butt">
      <path fill="none" d="M656 313.5 L666 313.5" clip-path="url(#clipPath2)"/>
      <path fill="none" d="M696 313.5 L706 313.5" clip-path="url(#clipPath2)"/>
    </g>
  </g>
</svg>
